<?xml version="1.0" encoding="UTF-8" standalone="no"?>
<!-- Created with Inkscape (http://www.inkscape.org/) -->

<svg
   xmlns:dc="http://purl.org/dc/elements/1.1/"
   xmlns:cc="http://creativecommons.org/ns#"
   xmlns:rdf="http://www.w3.org/1999/02/22-rdf-syntax-ns#"
   xmlns:svg="http://www.w3.org/2000/svg"
   xmlns="http://www.w3.org/2000/svg"
   xmlns:sodipodi="http://sodipodi.sourceforge.net/DTD/sodipodi-0.dtd"
   xmlns:inkscape="http://www.inkscape.org/namespaces/inkscape"
   version="1.1"
   width="24"
   height="24"
   id="svg3995"
   inkscape:version="0.48.5 r10040"
   sodipodi:docname="ic_zmon_grey_24dp.svg">
  <sodipodi:namedview
     pagecolor="#ffffff"
     bordercolor="#666666"
     borderopacity="1"
     objecttolerance="10"
     gridtolerance="10"
     guidetolerance="10"
     inkscape:pageopacity="0"
     inkscape:pageshadow="2"
     inkscape:window-width="814"
     inkscape:window-height="480"
     id="namedview11"
     showgrid="false"
     inkscape:zoom="9.8333333"
     inkscape:cx="12"
     inkscape:cy="12"
     inkscape:window-x="0"
     inkscape:window-y="0"
     inkscape:window-maximized="0"
     inkscape:current-layer="svg3995" />
  <defs
     id="defs3997" />
  <metadata
     id="metadata4000">
    <rdf:RDF>
      <cc:Work
         rdf:about="">
        <dc:format>image/svg+xml</dc:format>
        <dc:type
           rdf:resource="http://purl.org/dc/dcmitype/StillImage" />
        <dc:title></dc:title>
      </cc:Work>
    </rdf:RDF>
  </metadata>
  <rect
     style="fill:#ffffff;fill-opacity:0.66666667000000002;stroke:none;stroke-width:0.10000000000000001;stroke-miterlimit:4;stroke-opacity:1;stroke-dasharray:none"
     id="rect4136"
     y="4.983489"
     x="16.06426"
     ry="0"
     rx="0"
     height="9.6540089"
     width="2.5676138" />
  <rect
     style="fill:#ffffff;fill-opacity:0.66666667000000002;stroke:none;stroke-width:0.10000000000000001;stroke-miterlimit:4;stroke-opacity:1;stroke-dasharray:none"
     id="rect4136-2"
     y="8.0467796"
     x="12.4696"
     ry="0"
     rx="0"
     height="6.5907183"
     width="2.5676138" />
  <rect
     style="fill:#ffffff;fill-opacity:0.66666667000000002;stroke:none;stroke-width:0.10000000000000001;stroke-miterlimit:4;stroke-opacity:1;stroke-dasharray:none"
     id="rect4136-2-9"
     y="5.6332788"
     x="8.8642416"
     ry="0"
     rx="0"
     height="9.004221"
     width="2.5676138" />
  <rect
     style="fill:#ffffff;fill-opacity:0.66666667000000002;stroke:none;stroke-width:0.10000000000000001;stroke-miterlimit:4;stroke-opacity:1;stroke-dasharray:none"
     id="rect4136-2-9-9"
     y="10.460283"
     x="5.0663114"
     ry="0"
     rx="0"
     height="4.1772161"
     width="2.5676138" />
  <path
     inkscape:connector-curvature="0"
     style="fill:#f08532;fill-opacity:1;stroke:none"
     id="rect3143"
     d="M 2.7595628,1 C 1.7835223,1 1,1.7857983 1,2.766164 l 0,14.567888 c 0,0.980365 0.7835223,1.766164 1.7595628,1.766164 l 6.1092897,0 0,1.623922 c 0,1.160338 -0.7322405,0.697503 -0.7322405,1.161638 l 0,1.114224 7.756473,0 0,-1.113924 c 0,-0.464135 -0.641903,1.1e-5 -0.641903,-1.160338 l 0,-1.624472 5.989255,-0.0011 C 22.216478,19.100033 23,18.314405 23,17.33404 L 23,2.766152 C 23,1.7857983 22.216478,1 21.240437,1 z m 0.8524591,1.481681 16.7322401,0 c 0.972013,0 1.748634,0.756777 1.748634,1.695043 l 0,8.724138 c 0,0.938266 -0.776621,1.695043 -1.748634,1.695043 l -16.7322401,0 c -0.9720132,0 -1.7595629,-0.756777 -1.7595629,-1.695043 l 0,-8.724138 c 0,-0.938266 0.7875497,-1.695043 1.7595629,-1.695043 z" />
</svg>
